<svg height="512" viewBox="0 0 512 512" width="512" xmlns="http://www.w3.org/2000/svg"><g id="outline"><path d="m127.622 218.132 20.992 20.993-1.032.241a33.122 33.122 0 0 0 -16.675 9.634 40.359 40.359 0 0 0 1.86 57.049 40.576 40.576 0 0 0 16.085 9.231l5.99 1.782 2.168 5.861a40.558 40.558 0 0 0 10.259 15.45 40.072 40.072 0 0 0 27.561 10.907c.447 0 .9-.007 1.348-.022a40.093 40.093 0 0 0 28.138-12.744 33.126 33.126 0 0 0 8.531-17.268l.022-.132a75.161 75.161 0 0 1 1.615 22.257l-.875 11.191a8 8 0 0 0 12.313 7.346l14.27-9.208 26.459 26.459a78 78 0 1 0 145.424 54.914 78 78 0 1 0 -54.914-145.424l-28.9-28.9 9.7-17.438a8 8 0 0 0 -8.133-11.808l-11.109 1.6a75.24 75.24 0 0 1 -22.314-.164l.128-.03a33.126 33.126 0 0 0 16.675-9.636 40.358 40.358 0 0 0 -1.859-57.049 40.576 40.576 0 0 0 -16.078-9.224l-5.99-1.782-2.168-5.86a40.36 40.36 0 0 0 -67.308-13.591 33.155 33.155 0 0 0 -6.471 10.057l-15.2-15.2a78 78 0 1 0 -145.425-54.916 78 78 0 1 0 54.913 145.424zm85.019 107.444a24.359 24.359 0 0 1 -34.433 1.122 24.48 24.48 0 0 1 -6.192-9.324l-3.556-9.613a8 8 0 0 0 -5.222-4.892l-9.824-2.923a24.5 24.5 0 0 1 -9.709-5.571 24.361 24.361 0 0 1 -1.121-34.434 17.171 17.171 0 0 1 8.645-5l44.564-10.433 28.78 26.963-7.51 45.148a17.174 17.174 0 0 1 -4.422 8.957zm-3.195-90.2a16 16 0 0 1 10.418-27.667c.178 0 .357-.008.534-.008a15.889 15.889 0 0 1 10.926 4.323l23.353 21.876a16 16 0 0 1 -21.877 23.357l-.5-.471zm28.45 53.511 1.925-11.568a31.96 31.96 0 0 0 19.189-3.619 127.721 127.721 0 0 1 24.17 59.184l-10.536-4.845a8 8 0 0 0 -7.68.546l-14.281 9.215a91.874 91.874 0 0 0 -12.783-48.912zm141.795 14.513a62 62 0 1 1 44.109 114.25 8 8 0 0 0 -6.152 6.152 62 62 0 1 1 -114.248-44.111 8 8 0 0 0 -1.261-9.673l-20.009-20.009 6.815 3.135a8 8 0 0 0 11.339-7.529 143.735 143.735 0 0 0 -16.537-62.584 145.727 145.727 0 0 0 58.891 12.534q2.3 0 4.606-.075a7.968 7.968 0 0 0 7.713-8.419l15.064 15.064a8 8 0 0 0 9.67 1.265zm-43.48-56.891-8.265 14.851a8 8 0 0 0 -.045 7.7l5.508 10.173a129.7 129.7 0 0 1 -60.617-20.223 31.862 31.862 0 0 0 2.929-14.468 32.44 32.44 0 0 0 -.545-4.938l11.4-2.668a91.906 91.906 0 0 0 49.635 9.57zm-84.73-102.8a24.359 24.359 0 0 1 40.625 8.2l3.557 9.612a8 8 0 0 0 5.222 4.893l9.823 2.922a24.476 24.476 0 0 1 9.709 5.572 24.36 24.36 0 0 1 1.121 34.433 17.171 17.171 0 0 1 -8.645 5l-44.564 10.429-2.707-2.536-.006-.006-10.516-9.854-15.55-14.567 7.509-45.148a17.174 17.174 0 0 1 4.422-8.953zm-201.321-39.809a61.745 61.745 0 0 1 30.822-16.767 8 8 0 0 0 6.152-6.152 62 62 0 1 1 114.253 44.112 8 8 0 0 0 1.261 9.674l26.722 26.722-5.064 30.449a32.123 32.123 0 0 0 -4.963-.219 32 32 0 0 0 -30.943 33.025 32.44 32.44 0 0 0 .545 4.938l-22 5.15-32.183-32.183a8 8 0 0 0 -9.674-1.262 62 62 0 0 1 -74.928-97.487z"/><path d="m270.349 201.774a7.965 7.965 0 0 0 1.823-.211l28.085-6.575a8 8 0 1 0 -3.647-15.579l-16.4 3.84 2.764-16.616a8 8 0 0 0 -15.784-2.625l-4.732 28.453a8 8 0 0 0 7.892 9.313z"/><path d="m191.951 267.718-28.085 6.575a8 8 0 0 0 3.647 15.58l16.4-3.84-2.764 16.616a8 8 0 1 0 15.784 2.625l4.732-28.454a8 8 0 0 0 -9.715-9.1z"/></g></svg>